<svg width="15" height="15" viewBox="0 0 15 15" fill="none" xmlns="http://www.w3.org/2000/svg">
<g clip-path="url(#clip0_11_482)">
<path d="M14.875 6.875C14.6535 6.58275 14.5336 6.22609 14.5336 5.85937C14.5336 5.49265 14.6535 5.13599 14.875 4.84375C14.9697 4.72058 15.0151 4.56656 15.0024 4.41172C14.9897 4.25688 14.9197 4.11233 14.8062 4.00625L11.0187 0.193748C10.9127 0.0802495 10.7681 0.0103284 10.6133 -0.00238205C10.4584 -0.0150925 10.3044 0.0303191 10.1812 0.124998C9.88682 0.352552 9.52522 0.476 9.15311 0.476C8.781 0.476 8.41941 0.352552 8.12499 0.124998C8.00375 0.0373017 7.85508 -0.00399049 7.70598 0.00862531C7.55688 0.0212411 7.41726 0.0869277 7.31249 0.193748L0.0937356 7.4125C0.04146 7.46413 0.00904673 7.53252 0.00218879 7.60567C-0.00466916 7.67883 0.0144668 7.75205 0.0562356 7.8125C0.287264 8.14927 0.411415 8.54785 0.412486 8.95625C0.412649 9.31109 0.315361 9.65916 0.131236 9.9625C0.0578109 10.0879 0.027243 10.2338 0.0441586 10.3782C0.0610742 10.5225 0.124552 10.6574 0.224986 10.7625L4.23749 14.775C4.3422 14.8763 4.47765 14.9399 4.6225 14.9558C4.76735 14.9716 4.91335 14.9388 5.03749 14.8625C5.36682 14.6712 5.74367 14.5773 6.12425 14.5917C6.50484 14.6061 6.87353 14.7282 7.18749 14.9437C7.2465 14.9863 7.31898 15.006 7.39142 14.9991C7.46385 14.9922 7.53131 14.9592 7.58124 14.9062L14.8062 7.6875C14.9131 7.58272 14.9787 7.4431 14.9914 7.294C15.004 7.14491 14.9627 6.99623 14.875 6.875ZM12.15 7.10625L6.98124 12.25C6.7319 12.4973 6.39493 12.6361 6.04374 12.6361C5.69254 12.6361 5.35557 12.4973 5.10624 12.25L2.74999 9.9C2.50267 9.65066 2.36389 9.31369 2.36389 8.9625C2.36389 8.6113 2.50267 8.27434 2.74999 8.025L7.91874 2.85625C8.16807 2.60893 8.50504 2.47015 8.85624 2.47015C9.20743 2.47015 9.5444 2.60893 9.79374 2.85625L12.1437 5.20625C12.3919 5.45476 12.5318 5.79127 12.533 6.14246C12.5341 6.49366 12.3965 6.83109 12.15 7.08125V7.10625Z" fill="#090909"/>
<path d="M9.19374 4.375C9.10585 4.28722 8.98671 4.23792 8.86249 4.23792C8.73827 4.23792 8.61913 4.28722 8.53124 4.375L4.29999 8.625C4.21221 8.71289 4.1629 8.83203 4.1629 8.95625C4.1629 9.08047 4.21221 9.19961 4.29999 9.2875C4.38788 9.37528 4.50702 9.42459 4.63124 9.42459C4.75546 9.42459 4.8746 9.37528 4.96249 9.2875L9.19374 5.05625C9.24008 5.01244 9.277 4.95964 9.30222 4.90107C9.32745 4.8425 9.34046 4.7794 9.34046 4.71563C9.34046 4.65186 9.32745 4.58876 9.30222 4.53019C9.277 4.47162 9.24008 4.41881 9.19374 4.375ZM8.87499 7.09375L6.99999 8.96875C6.91221 9.05664 6.8629 9.17578 6.8629 9.3C6.8629 9.42422 6.91221 9.54336 6.99999 9.63125C7.08788 9.71903 7.20702 9.76834 7.33124 9.76834C7.45546 9.76834 7.5746 9.71903 7.66249 9.63125L9.53749 7.75625C9.62527 7.66836 9.67458 7.54922 9.67458 7.425C9.67458 7.30078 9.62527 7.18164 9.53749 7.09375C9.4944 7.04953 9.44289 7.01438 9.386 6.99038C9.32911 6.96638 9.26799 6.95402 9.20624 6.95402C9.14449 6.95402 9.08337 6.96638 9.02648 6.99038C8.96959 7.01438 8.91808 7.04953 8.87499 7.09375Z" fill="#090909"/>
</g>
<defs>
<clipPath id="clip0_11_482">
<rect width="15" height="15" fill="white"/>
</clipPath>
</defs>
</svg>
