<svg width="12" height="12" viewBox="0 0 12 12" fill="none" xmlns="http://www.w3.org/2000/svg">
<circle cx="6" cy="6" r="5.5" stroke="#FF5500"/>
<mask id="path-2-inside-1_7_124" fill="white">
<path d="M0 6C0 7.18669 0.351893 8.34673 1.01118 9.33342C1.67047 10.3201 2.60754 11.0892 3.7039 11.5433C4.80026 11.9974 6.00666 12.1162 7.17054 11.8847C8.33443 11.6532 9.40353 11.0818 10.2426 10.2426C11.0818 9.40353 11.6532 8.33443 11.8847 7.17054C12.1162 6.00666 11.9974 4.80026 11.5433 3.7039C11.0892 2.60754 10.3201 1.67047 9.33342 1.01118C8.34673 0.351893 7.18669 0 6 0L6 6L0 6Z"/>
</mask>
<path d="M0 6C0 7.18669 0.351893 8.34673 1.01118 9.33342C1.67047 10.3201 2.60754 11.0892 3.7039 11.5433C4.80026 11.9974 6.00666 12.1162 7.17054 11.8847C8.33443 11.6532 9.40353 11.0818 10.2426 10.2426C11.0818 9.40353 11.6532 8.33443 11.8847 7.17054C12.1162 6.00666 11.9974 4.80026 11.5433 3.7039C11.0892 2.60754 10.3201 1.67047 9.33342 1.01118C8.34673 0.351893 7.18669 0 6 0L6 6L0 6Z" fill="#FF5500" stroke="#FF5500" stroke-width="2" mask="url(#path-2-inside-1_7_124)"/>
</svg>
